<?xml version="1.0" standalone="no"?>
<!DOCTYPE svg PUBLIC "-//W3C//DTD SVG 20010904//EN"
 "http://www.w3.org/TR/2001/REC-SVG-20010904/DTD/svg10.dtd">
<svg version="1.0" xmlns="http://www.w3.org/2000/svg"
 width="512.000000pt" height="512.000000pt" viewBox="0 0 512.000000 512.000000"
 preserveAspectRatio="xMidYMid meet">

<g transform="translate(0.000000,512.000000) scale(0.100000,-0.100000)"
fill="#000000" stroke="none">
<path d="M54 5110 c-12 -5 -29 -19 -38 -32 -15 -20 -16 -211 -16 -2131 0
-1584 3 -2114 12 -2130 25 -47 9 -46 644 -47 593 0 602 0 628 21 26 21 35 65
20 104 -17 44 -33 45 -599 45 l-535 0 0 1665 0 1665 1889 0 c1039 0 1897 3
1906 6 25 10 47 62 40 95 -14 64 137 59 -1942 59 l-1893 0 0 260 0 260 2005 0
2005 0 0 -544 0 -545 24 -27 c33 -39 89 -39 122 0 l24 27 0 599 0 599 -24 28
-24 28 -2114 2 c-1177 1 -2122 -2 -2134 -7z"/>
<path d="M490 4773 c-61 -22 -79 -95 -35 -138 44 -45 116 -26 138 37 11 32
-14 79 -49 94 -18 8 -35 14 -36 13 -2 0 -10 -3 -18 -6z"/>
<path d="M824 4770 c-55 -22 -70 -95 -29 -135 40 -41 105 -33 131 17 35 68
-33 146 -102 118z"/>
<path d="M1173 4772 c-30 -5 -63 -48 -63 -84 0 -56 66 -94 125 -72 25 10 47
62 40 94 -10 46 -50 70 -102 62z"/>
<path d="M1770 4773 c-61 -22 -79 -95 -35 -138 l24 -25 1101 0 c1082 0 1100 0
1120 20 45 45 33 112 -25 135 -29 13 -190 15 -1102 14 -587 0 -1075 -3 -1083
-6z"/>
<path d="M2625 4075 c-283 -46 -545 -148 -776 -304 -146 -98 -169 -121 -169
-169 0 -49 32 -82 80 -82 25 0 49 12 89 44 92 71 194 134 323 196 67 33 124
58 126 56 2 -2 -25 -39 -60 -82 -82 -102 -144 -202 -208 -337 -40 -84 -56
-107 -68 -103 -10 3 -48 15 -87 27 -38 11 -134 46 -212 76 -172 67 -176 67
-257 -41 -191 -255 -315 -555 -362 -876 -23 -161 -16 -461 15 -614 96 -476
372 -901 767 -1181 115 -81 343 -199 464 -239 334 -111 654 -132 985 -65 121
24 332 93 358 117 47 42 40 109 -15 138 -27 14 -36 12 -161 -30 -138 -47 -310
-84 -412 -88 l-60 -3 -3 382 -2 383 47 0 c43 0 126 -7 310 -26 59 -6 63 -5 92
24 37 37 40 71 8 107 -28 33 -62 40 -284 56 l-173 12 0 339 0 338 431 0 431 0
-6 -82 c-4 -46 -14 -143 -23 -216 -16 -130 -16 -133 3 -159 38 -51 105 -51
138 -1 14 22 38 199 52 381 l6 77 299 0 299 0 -4 -22 c-3 -13 -8 -54 -11 -93
-9 -99 -41 -242 -81 -356 -40 -114 -41 -137 -13 -173 22 -28 73 -36 109 -16
38 20 115 268 146 469 21 140 21 392 0 541 -98 696 -594 1293 -1258 1514 -202
67 -326 87 -568 92 -156 2 -240 -1 -305 -11z m195 -540 l0 -375 -78 0 c-132 0
-545 57 -583 80 -15 10 62 169 141 290 74 113 210 251 296 302 73 43 159 77
197 77 l27 1 0 -375z m325 325 c173 -85 323 -254 451 -509 l53 -106 -41 -12
c-75 -23 -367 -64 -498 -70 l-130 -6 0 378 0 378 43 -7 c23 -4 78 -25 122 -46z
m454 -86 c85 -38 225 -121 311 -184 98 -73 223 -191 213 -201 -12 -11 -272
-99 -294 -99 -10 0 -19 5 -19 10 0 6 -20 54 -45 107 -46 99 -164 282 -232 362
-35 41 -36 43 -13 36 14 -4 49 -18 79 -31z m-1819 -602 c74 -25 136 -46 137
-47 2 -1 -6 -33 -17 -71 -51 -178 -90 -419 -106 -651 l-7 -103 -293 0 c-161 0
-295 3 -297 8 -7 12 12 162 34 265 42 203 131 413 248 589 l64 97 51 -21 c28
-11 112 -41 186 -66z m2547 -17 c153 -228 261 -542 275 -800 l3 -50 -297 -3
-296 -2 -7 97 c-15 225 -51 451 -102 631 -14 51 -24 94 -22 96 2 2 62 23 133
46 72 24 155 53 185 65 l55 23 16 -22 c9 -11 35 -48 57 -81z m-2062 -109 c167
-31 280 -45 430 -54 l120 -7 0 -340 0 -340 -429 -3 -428 -2 7 102 c10 161 42
365 81 520 20 79 38 147 41 151 3 5 15 6 27 3 11 -3 80 -17 151 -30z m1468
-63 c54 -203 85 -386 94 -566 l6 -117 -424 2 -424 3 0 340 0 340 130 7 c144 8
378 39 500 67 44 10 83 19 86 20 3 0 18 -43 32 -96z m-1943 -866 c0 -148 52
-505 101 -686 16 -63 26 -117 22 -121 -4 -4 -34 -15 -67 -24 -32 -10 -110 -37
-173 -62 -87 -33 -119 -42 -129 -33 -27 22 -137 204 -184 302 -84 177 -140
379 -156 560 l-7 77 297 0 c236 0 296 -3 296 -13z m1030 -325 l0 -339 -164
-12 c-172 -13 -364 -39 -486 -67 -40 -9 -76 -12 -81 -7 -13 13 -66 230 -88
360 -19 111 -41 314 -41 376 l0 27 430 0 430 0 0 -338z m0 -892 c0 -209 -3
-380 -7 -380 -30 1 -122 33 -181 65 -161 84 -314 259 -429 490 -66 130 -71
118 59 143 174 34 358 56 501 60 l57 2 0 -380z m-824 213 c59 -142 177 -336
265 -436 21 -25 39 -48 39 -51 0 -17 -236 103 -350 179 -94 63 -280 218 -280
234 0 6 290 110 308 111 2 0 10 -17 18 -37z"/>
<path d="M1142 3702 c-10 -10 -45 -54 -78 -98 -279 -369 -442 -820 -461 -1272
-6 -138 -5 -143 16 -166 30 -32 65 -40 100 -22 40 21 49 53 55 201 18 409 166
813 426 1160 44 59 80 116 80 127 0 24 -18 59 -39 75 -24 18 -78 16 -99 -5z"/>
<path d="M4575 3698 c-29 -17 -44 -40 -45 -66 0 -31 8 -44 84 -146 81 -106
161 -242 225 -379 27 -57 56 -107 66 -110 36 -14 76 -7 102 19 36 36 28 74
-45 222 -70 139 -120 221 -210 344 -90 124 -124 146 -177 116z"/>
<path d="M3670 1487 c-13 -7 -31 -24 -39 -39 -14 -24 -6 -62 140 -619 134
-519 157 -597 181 -621 31 -33 66 -36 100 -9 13 11 66 81 118 156 l92 137 242
-240 c237 -236 269 -262 313 -248 11 3 83 71 161 149 117 118 142 149 142 172
0 25 -39 68 -247 277 -151 152 -244 251 -238 257 6 4 71 49 146 99 146 97 169
124 150 175 -6 14 -20 33 -33 41 -17 11 -1037 289 -1178 321 -14 3 -36 -1 -50
-8z m565 -302 c219 -57 400 -106 402 -109 3 -2 -37 -32 -89 -67 -130 -86 -138
-95 -138 -143 0 -39 6 -46 250 -291 l250 -251 -60 -59 -60 -59 -253 252 c-237
236 -255 252 -289 252 -43 0 -65 -23 -147 -148 -30 -46 -57 -79 -61 -75 -6 7
-210 779 -210 796 0 4 2 7 4 7 2 0 183 -47 401 -105z"/>
</g>
</svg>
