<?xml version="1.0" standalone="no"?>
<!DOCTYPE svg PUBLIC "-//W3C//DTD SVG 20010904//EN"
 "http://www.w3.org/TR/2001/REC-SVG-20010904/DTD/svg10.dtd">
<svg version="1.0" xmlns="http://www.w3.org/2000/svg"
 width="512.000000pt" height="512.000000pt" viewBox="0 0 512.000000 512.000000"
 preserveAspectRatio="xMidYMid meet">

<g transform="translate(0.000000,512.000000) scale(0.100000,-0.100000)"
fill="#000000" stroke="none">
<path d="M1085 4948 c-27 -5 -86 -27 -131 -48 -152 -73 -274 -232 -303 -394
-15 -83 -15 -3809 0 -3892 35 -194 186 -361 389 -430 53 -18 115 -19 1520 -19
1405 0 1467 1 1520 19 179 61 306 183 372 359 l23 62 3 1675 2 1674 -502 503
-503 503 -1170 -1 c-683 -1 -1191 -5 -1220 -11z m2275 -371 c0 -260 8 -313 60
-422 63 -133 169 -227 319 -284 63 -24 77 -25 324 -29 l257 -4 0 -1119 0
-1119 -1760 0 -1760 0 2 1448 3 1447 32 67 c17 37 50 87 72 111 44 48 135 101
197 116 22 5 519 9 1147 10 l1107 1 0 -223z m808 -575 c-18 -2 -103 -2 -188 0
-150 3 -157 4 -222 35 -93 44 -151 100 -196 191 l-37 76 -3 190 -3 191 341
-340 c333 -333 340 -340 308 -343z m150 -2969 l-3 -408 -32 -67 c-44 -93 -100
-151 -191 -196 l-76 -37 -1455 0 -1456 0 -67 32 c-93 44 -151 100 -196 191
l-37 76 -3 408 -3 408 1761 0 1761 0 -3 -407z"/>
<path d="M2751 3823 c-16 -13 -86 -214 -266 -753 -135 -404 -245 -745 -245
-758 0 -57 83 -92 129 -54 16 12 86 213 266 752 135 404 245 745 245 758 0 57
-83 92 -129 55z"/>
<path d="M1703 3337 c-243 -242 -263 -265 -263 -297 0 -32 20 -55 263 -297
236 -237 266 -263 295 -263 44 0 82 38 82 82 0 28 -24 56 -222 255 l-222 223
222 223 c198 199 222 227 222 255 0 44 -38 82 -82 82 -29 0 -59 -26 -295 -263z"/>
<path d="M3065 3575 c-16 -16 -25 -35 -25 -57 0 -28 24 -56 222 -255 l222
-223 -222 -223 c-198 -199 -222 -227 -222 -255 0 -44 38 -82 82 -82 29 0 59
26 295 263 243 242 263 265 263 297 0 32 -20 55 -263 297 -236 237 -266 263
-295 263 -22 0 -41 -8 -57 -25z"/>
<path d="M1305 1255 l-25 -24 0 -351 0 -351 25 -24 c32 -33 78 -33 110 0 24
23 25 29 25 160 l0 135 80 0 80 0 0 -135 c0 -131 1 -137 25 -160 15 -16 36
-25 55 -25 19 0 40 9 55 25 l25 24 0 351 0 351 -25 24 c-15 16 -36 25 -55 25
-19 0 -40 -9 -55 -25 -24 -23 -25 -29 -25 -160 l0 -135 -80 0 -80 0 0 135 c0
131 -1 137 -25 160 -15 16 -36 25 -55 25 -19 0 -40 -9 -55 -25z"/>
<path d="M1945 1255 c-16 -15 -25 -36 -25 -55 0 -51 38 -80 105 -80 l55 0 0
-295 0 -296 25 -24 c32 -33 78 -33 110 0 l25 24 0 296 0 295 55 0 c67 0 105
29 105 80 0 19 -9 40 -25 55 -24 25 -26 25 -215 25 -189 0 -191 0 -215 -25z"/>
<path d="M2585 1255 l-25 -24 0 -351 0 -351 25 -24 c32 -33 78 -33 110 0 24
24 25 28 25 187 l1 163 52 -100 c40 -78 58 -102 80 -109 54 -19 77 0 134 109
l52 100 1 -163 c0 -159 1 -163 25 -187 32 -33 78 -33 110 0 l25 24 0 351 0
351 -25 24 c-27 28 -70 33 -100 11 -11 -8 -58 -91 -105 -185 -46 -94 -87 -171
-90 -171 -3 0 -44 77 -90 171 -47 94 -94 177 -105 185 -30 22 -73 17 -100 -11z"/>
<path d="M3385 1255 l-25 -24 0 -351 0 -351 25 -24 c24 -25 26 -25 215 -25
189 0 191 0 215 25 16 15 25 36 25 55 0 19 -9 40 -25 55 -23 24 -29 25 -160
25 l-135 0 0 295 0 296 -25 24 c-15 16 -36 25 -55 25 -19 0 -40 -9 -55 -25z"/>
</g>
</svg>
