<?xml version="1.0" standalone="no"?>
<!DOCTYPE svg PUBLIC "-//W3C//DTD SVG 20010904//EN"
 "http://www.w3.org/TR/2001/REC-SVG-20010904/DTD/svg10.dtd">
<svg version="1.0" xmlns="http://www.w3.org/2000/svg"
 width="512.000000pt" height="512.000000pt" viewBox="0 0 512.000000 512.000000"
 preserveAspectRatio="xMidYMid meet">

<g transform="translate(0.000000,512.000000) scale(0.100000,-0.100000)"
fill="#000000" stroke="none">
<path d="M727 5110 c-49 -15 -95 -58 -124 -117 l-28 -58 -3 -2373 c-2 -1728 1
-2385 9 -2415 7 -27 25 -55 51 -79 80 -73 -70 -68 1928 -68 1998 0 1848 -5
1928 68 26 24 44 52 51 79 18 65 11 3807 -7 3848 -20 45 -1058 1081 -1108
1105 -40 20 -66 20 -1355 19 -723 0 -1327 -5 -1342 -9z m2583 -685 l0 -516
-45 27 c-29 17 -66 28 -104 31 -54 5 -62 3 -85 -20 -30 -30 -35 -80 -11 -114
9 -12 39 -28 70 -38 34 -9 60 -24 69 -38 11 -17 15 -76 18 -252 4 -221 5 -232
30 -286 14 -30 40 -72 57 -92 l33 -37 -36 -42 c-69 -80 -79 -124 -85 -384 -7
-262 -8 -267 -83 -279 -55 -10 -88 -44 -88 -90 0 -82 91 -110 195 -61 58 27
94 63 127 126 22 43 23 58 28 285 3 161 9 247 17 261 11 19 78 84 87 84 2 0
27 5 57 10 68 13 99 41 99 90 0 48 -31 77 -98 90 -29 5 -61 14 -71 19 -14 8
-64 58 -83 84 0 1 -4 112 -7 247 -6 244 -6 245 -34 294 -15 27 -26 50 -24 52
2 2 233 5 515 6 l512 3 0 -1102 0 -1103 -1810 0 -1810 0 0 1604 c0 1019 4
1614 10 1630 l10 26 1270 0 1270 0 0 -515z m555 5 l370 -370 -373 0 -372 0 0
370 c0 204 1 370 3 370 1 0 169 -166 372 -370z m505 -3578 c0 -491 -3 -651
-12 -660 -17 -17 -3579 -17 -3596 0 -9 9 -12 169 -12 660 l0 648 1810 0 1810
0 0 -648z"/>
<path d="M1807 3955 c-61 -23 -114 -71 -144 -133 -28 -56 -28 -59 -33 -292 -5
-212 -7 -238 -25 -268 -26 -43 -70 -70 -136 -82 -134 -25 -133 -155 1 -180 69
-13 115 -44 140 -96 18 -36 20 -61 20 -237 0 -108 5 -219 11 -247 24 -112 116
-197 226 -207 52 -5 62 -3 87 19 21 18 28 33 28 61 0 50 -22 73 -88 92 -81 23
-84 34 -84 272 0 258 -13 313 -99 406 l-25 27 30 33 c81 86 94 143 94 400 0
221 6 247 61 266 18 6 40 11 49 11 21 0 58 39 60 65 4 40 -1 56 -25 80 -28 29
-86 33 -148 10z"/>
<path d="M2465 3518 c-40 -22 -65 -52 -76 -91 -20 -76 45 -157 126 -157 48 0
99 31 119 74 21 45 20 71 -6 117 -33 59 -111 86 -163 57z"/>
<path d="M2455 2884 c-24 -26 -25 -31 -25 -190 0 -157 1 -164 24 -190 31 -37
84 -38 121 -4 25 23 25 25 25 192 0 166 0 169 -25 193 -34 35 -88 34 -120 -1z"/>
<path d="M2240 916 c0 -225 -4 -354 -11 -375 -7 -18 -24 -39 -43 -49 -43 -23
-145 -20 -220 7 -66 23 -72 21 -102 -34 -23 -43 -18 -49 72 -82 83 -30 211
-41 279 -24 69 17 121 56 147 110 23 45 23 54 26 419 l3 372 -75 0 -76 0 0
-344z"/>
<path d="M2803 1250 c-88 -19 -158 -73 -190 -147 -20 -49 -17 -147 7 -192 24
-49 83 -99 163 -141 180 -94 213 -139 173 -235 -29 -68 -137 -87 -266 -46 -36
11 -68 21 -71 21 -4 0 -12 -21 -18 -47 -12 -44 -11 -48 11 -64 38 -29 108 -44
208 -44 84 0 101 4 146 27 90 47 136 121 136 218 0 113 -42 164 -213 255 -122
65 -150 93 -152 148 -2 80 53 126 154 129 35 1 74 -4 86 -10 12 -7 26 -12 31
-12 12 0 56 96 48 108 -15 25 -184 46 -253 32z"/>
</g>
</svg>
