<?xml version="1.0" standalone="no"?>
<!DOCTYPE svg PUBLIC "-//W3C//DTD SVG 20010904//EN"
 "http://www.w3.org/TR/2001/REC-SVG-20010904/DTD/svg10.dtd">
<svg version="1.0" xmlns="http://www.w3.org/2000/svg"
 width="512.000000pt" height="512.000000pt" viewBox="0 0 512.000000 512.000000"
 preserveAspectRatio="xMidYMid meet">

<g transform="translate(0.000000,512.000000) scale(0.100000,-0.100000)"
fill="#000000" stroke="none">
<path d="M1595 5056 c-37 -16 -70 -52 -84 -89 -8 -19 -11 -322 -11 -953 l0
-924 -558 0 c-608 0 -624 -1 -720 -57 -61 -36 -134 -109 -163 -164 -55 -105
-53 -64 -56 -904 -3 -685 -2 -789 12 -852 39 -176 188 -308 376 -333 40 -5
307 -10 591 -10 l517 0 3 -309 c3 -297 4 -311 24 -338 12 -15 36 -37 55 -48
34 -20 52 -20 1729 -20 1677 0 1695 0 1729 20 19 11 43 33 55 48 l21 28 3
1707 c1 939 0 1723 -3 1742 -5 30 -105 134 -708 739 -406 407 -716 709 -734
717 -47 20 -2032 20 -2078 0z m1865 -912 c0 -681 -2 -660 64 -707 l31 -22 628
-3 627 -2 0 -1525 0 -1525 -1500 0 -1500 0 0 205 0 204 1088 3 c1082 3 1087 3
1143 25 143 54 237 150 283 291 15 43 16 135 14 863 l-3 814 -32 67 c-56 119
-149 200 -274 239 -58 18 -111 19 -1140 19 l-1079 0 0 835 0 835 825 0 825 0
0 -616z m725 -14 l410 -410 -413 0 -412 0 0 410 c0 226 1 410 3 410 1 0 187
-184 412 -410z m-216 -1364 c15 -8 37 -28 47 -43 18 -27 19 -58 19 -788 l0
-760 -22 -31 c-49 -69 97 -64 -1839 -64 -1721 0 -1748 0 -1789 20 -80 39 -75
-15 -75 830 0 818 -2 783 56 829 l27 21 1774 0 c1529 0 1778 -2 1802 -14z"/>
<path d="M874 2570 c-159 -32 -290 -184 -302 -350 -9 -128 52 -259 156 -335
79 -58 118 -67 305 -74 162 -6 170 -7 188 -30 36 -44 19 -100 -35 -121 -16 -6
-125 -10 -267 -10 -259 0 -276 -3 -317 -55 -45 -57 -36 -158 18 -210 l31 -30
293 -3 c278 -3 296 -2 350 18 156 59 252 198 250 365 -1 104 -29 177 -95 249
-96 105 -186 136 -401 136 -115 0 -130 2 -148 20 -28 28 -26 81 3 108 21 20
33 21 284 24 246 3 263 4 289 24 51 37 67 68 67 127 0 69 -24 111 -78 137 -38
18 -61 20 -296 19 -140 -1 -273 -5 -295 -9z"/>
<path d="M2120 2569 c-73 -14 -201 -83 -257 -138 -58 -57 -112 -142 -139 -216
-22 -63 -32 -363 -15 -447 40 -193 207 -362 400 -408 76 -18 231 -8 300 18
l55 21 91 -88 c76 -74 99 -90 133 -96 110 -18 219 114 171 208 -6 12 -47 59
-91 103 l-80 82 28 68 c27 66 29 77 32 261 3 158 1 202 -13 250 -67 233 -285
397 -519 392 -28 -1 -71 -5 -96 -10z m228 -336 c74 -45 94 -96 100 -248 3 -76
1 -125 -5 -125 -5 0 -22 14 -39 31 -74 78 -153 80 -227 4 -60 -62 -61 -137 -4
-202 l32 -36 -35 6 c-52 11 -104 52 -134 106 -25 46 -26 56 -26 196 0 163 7
188 64 244 70 68 186 78 274 24z"/>
<path d="M3135 2571 c-48 -12 -74 -33 -95 -77 -19 -38 -20 -63 -20 -530 0
-455 2 -492 19 -530 11 -24 33 -50 53 -62 34 -21 45 -22 348 -22 296 0 314 1
345 20 81 50 87 180 11 250 -27 25 -29 25 -247 28 l-219 3 0 399 c0 343 -2
405 -16 440 -25 63 -106 100 -179 81z"/>
</g>
</svg>
